# File created by Blade
# Date/Time:  Thu Jan 22 19:24:19 2015
# Frame Rate: 120.000 fps
#------------------------------------------------------
:FULLY-SPECIFIED
:DEGREES
4181
root -3.645567 33.170585 -3.516528 7.597264 -8.491089 3.723700
RightUpLeg -6.014874 -2.050183 2.533179
RightLeg 7.696416 -0.000000 -0.000000
RightFoot -15.037267 -1.747103 -0.117817
RightToeBase 4.762328 -0.000000 -0.000000
LeftUpLeg -25.673391 -2.121135 -1.744557
LeftLeg 44.814215 -0.000000 -0.000000
LeftFoot -20.194112 4.982261 -21.516246
LeftToeBase -8.509372 -0.000000 0.000000
Spine -4.098094 4.268416 -2.723886
RightShoulder -14.988052 -18.767662 -13.843629
RightArm 21.520399 -22.094442 76.473805
RightForeArm -0.890089 -0.000000 34.893168
RightHand 12.883477 -0.000000 4.788802
RightHandThumb1 -24.326973 -0.000000 -32.862282
LeftShoulder -24.182824 9.090659 15.189214
LeftArm 7.556479 19.485365 -94.208958
LeftForeArm 19.285969 -0.000000 25.487576
LeftHand -0.649381 -0.000000 5.783557
LeftHandThumb1 -26.253704 0.000000 33.147579
Head -6.651032 9.104039 -7.368215
4182
root -3.656411 33.164488 -3.502030 7.593542 -8.525659 3.652045
RightUpLeg -5.856550 -2.028442 2.606258
RightLeg 7.452218 -0.000000 -0.000000
RightFoot -14.973074 -1.664597 -0.136075
RightToeBase 5.019600 -0.000000 -0.000000
LeftUpLeg -25.295636 -2.330814 -1.772942
LeftLeg 44.470970 -0.000000 -0.000000
LeftFoot -20.098136 4.926356 -21.480571
LeftToeBase -8.785195 -0.000000 0.000000
Spine -4.204130 4.322762 -2.533236
RightShoulder -15.047044 -18.862070 -13.773661
RightArm 21.442733 -22.117676 76.511497
RightForeArm -0.882645 0.000000 34.632563
RightHand 12.820965 -0.000000 4.943603
RightHandThumb1 -24.326973 -0.000000 -32.862282
LeftShoulder -24.274141 9.235092 15.039662
LeftArm 7.253114 19.607366 -94.482911
LeftForeArm 19.782078 -0.000000 25.093985
LeftHand -0.538918 -0.000000 5.974141
LeftHandThumb1 -26.253704 0.000000 33.147579
Head -6.498291 9.179226 -7.428960
4183
root -3.668177 33.158038 -3.484599 7.552619 -8.595964 3.588783
RightUpLeg -5.653820 -1.816634 2.658108
RightLeg 7.205217 -0.000000 -0.000000
RightFoot -14.909440 -1.774699 -0.078821
RightToeBase 4.915350 -0.000000 -0.000000
LeftUpLeg -24.827226 -2.473461 -1.808353
LeftLeg 44.005072 -0.000000 -0.000000
LeftFoot -19.946804 4.820677 -21.523136
LeftToeBase -8.868379 -0.000000 0.000000
Spine -4.265696 4.430368 -2.372611
RightShoulder -15.150977 -18.976538 -13.657690
RightArm 21.373839 -22.136334 76.558935
RightForeArm -0.885542 -0.000000 34.347778
RightHand 12.969175 -0.000000 4.846358
RightHandThumb1 -24.326973 -0.000000 -32.862282
LeftShoulder -24.332711 9.363903 14.911995
LeftArm 6.983741 19.600871 -94.763706
LeftForeArm 20.361284 -0.000000 24.683576
LeftHand -0.593740 -0.000000 5.825473
LeftHandThumb1 -26.253704 0.000000 33.147579
Head -6.350312 9.225493 -7.468400
4184
root -3.684567 33.150706 -3.471609 7.543910 -8.678873 3.497598
RightUpLeg -5.486438 -1.533348 2.742059
RightLeg 6.956317 -0.000000 -0.000000
RightFoot -14.836122 -1.912983 0.001141
RightToeBase 4.890858 -0.000000 -0.000000
LeftUpLeg -24.343478 -2.568013 -1.790201
LeftLeg 43.428890 -0.000000 -0.000000
LeftFoot -19.792669 4.633979 -21.640659
LeftToeBase -8.873110 -0.000000 0.000000
Spine -4.352689 4.539483 -2.216677
RightShoulder -15.277607 -19.109863 -13.510735
RightArm 21.299612 -22.104087 76.636521
RightForeArm -0.864663 -0.000000 34.122606
RightHand 12.897419 -0.000000 4.726735
RightHandThumb1 -24.326973 -0.000000 -32.862282
LeftShoulder -24.405537 9.528794 14.806333
LeftArm 6.778986 19.830392 -94.942242
LeftForeArm 20.534855 0.000000 24.313134
LeftHand -0.736374 0.000000 5.952438
LeftHandThumb1 -26.253704 0.000000 33.147579
Head -6.212920 9.298895 -7.448188
4185
root -3.699806 33.143163 -3.460919 7.543639 -8.761924 3.399360
RightUpLeg -5.340295 -1.232093 2.830286
RightLeg 6.730085 -0.000000 -0.000000
RightFoot -14.763576 -2.055313 0.114559
RightToeBase 4.823342 -0.000000 -0.000000
LeftUpLeg -23.842606 -2.647040 -1.771561
LeftLeg 42.775954 -0.000000 -0.000000
LeftFoot -19.609190 4.592565 -21.633220
LeftToeBase -9.076583 -0.000000 0.000000
Spine -4.428180 4.631968 -2.057181
RightShoulder -15.394685 -19.164827 -13.372990
RightArm 21.144336 -22.096759 76.725969
RightForeArm -0.756359 0.000000 33.883041
RightHand 13.055046 -0.000000 4.701246
RightHandThumb1 -24.326973 -0.000000 -32.862282
LeftShoulder -24.458836 9.643382 14.719427
LeftArm 6.542157 19.861306 -95.153520
LeftForeArm 20.784647 0.000000 23.899674
LeftHand -0.773311 -0.000000 5.912795
LeftHandThumb1 -26.253704 0.000000 33.147579
Head -6.158830 9.399567 -7.417402
4186
root -3.710972 33.136177 -3.446051 7.512547 -8.837811 3.300764
RightUpLeg -5.148894 -0.917186 2.912209
RightLeg 6.487287 -0.000000 -0.000000
RightFoot -14.676764 -2.223228 0.175596
RightToeBase 4.775151 -0.000000 -0.000000
LeftUpLeg -23.277083 -2.755403 -1.739730
LeftLeg 42.038095 -0.000000 -0.000000
LeftFoot -19.436793 4.461669 -21.870944
LeftToeBase -8.857196 -0.000000 0.000000
Spine -4.471530 4.708191 -1.880654
RightShoulder -15.536871 -19.270168 -13.227878
RightArm 21.023405 -22.077892 76.812644
RightForeArm -0.674967 0.000000 33.711635
RightHand 13.010885 -0.000000 4.470964
RightHandThumb1 -24.326973 -0.000000 -32.862282
LeftShoulder -24.477744 9.717622 14.641533
LeftArm 6.257438 19.825654 -95.381696
LeftForeArm 21.205035 -0.000000 23.439810
LeftHand -0.738886 -0.000000 6.007021
LeftHandThumb1 -26.253704 0.000000 33.147579
Head -6.067737 9.450678 -7.443982
